<?xml version="1.0" encoding="UTF-8"?>
<svg version="1.1" viewBox="0 0 2048 972" width="1280" height="1280" xmlns="http://www.w3.org/2000/svg">
<path transform="translate(378,139)" d="m0 0h325l6 4 3 5v121l-3 6-5 3-387 1-12 3-8 4-9 8-7 14-1 3v350l5 12 6 8 8 6 8 4 11 2 386 1 6 4 2 5v121l-4 6-6 3h-323l-10-2-14-7-10-9-196-196-6-10-3-9-1-6v-326l4-13 7-9 10-7 10-3 85-1 12-4 10-6 75-75 11-7 9-3z"/>
<path transform="translate(1325,139)" d="m0 0h573l6 3 4 5 1 4v114l-3 7-6 5-258 1-6 3-2 4v9l7 8 49 49 6 10 3 9 1 7v449l-3 5-4 2h-124l-5-3-2-2-1-520-3-12-6-9-11-7-8-2-209-1-5-5v-128z"/>
<path transform="translate(847,139)" d="m0 0h119l5 3 4 5 1 3 1 510 4 12 6 8 8 7 8 4 8 2 354 1 6 3 3 4 1 3v119l-4 7-7 3h-290l-12-3-10-5-10-9-196-196-7-14-2-8v-449l4-7z"/>
</svg>
